<svg width="194" height="65" viewBox="0 0 194 65" fill="none" xmlns="http://www.w3.org/2000/svg" role="img" aria-label="Milhas e Gestão">
<path d="M99.816 14.5265L93.125 5.18743C94.3227 1.72642 94.2095 0.330124 93.5135 0.0478955C92.8175 -0.234333 91.7564 0.686624 90.1765 3.99061L78.8226 6.01714C78.4618 6.0808 78.148 6.30362 77.9729 6.62404L77.3687 7.72113C77.2577 7.92484 77.3879 8.17524 77.6185 8.20071L87.9519 9.38055C87.1064 11.6936 86.3698 14.0235 85.9215 15.8315L82.6913 16.4087C82.576 16.4299 82.4756 16.4999 82.4201 16.6018L82.228 16.9498C82.1917 17.0156 82.2344 17.0941 82.3091 17.1026L85.3536 17.4506L85.518 17.5164C82.1191 27.2501 74.542 50.9043 70.146 46.8045C66.128 43.0592 61.922 34.4989 58.2328 26.7939C57.3852 25.0241 55.5939 24.1074 54.4069 25.6734L44.7866 44.0544C43.433 46.1509 40.2882 45.9515 39.2121 43.7021L26.2933 16.7291C25.2877 14.9657 22.651 15.231 22.0212 17.1578C15.4582 37.2554 6.43357 50.1085 0.765163 57.9154C-1.14993 60.5531 0.750218 64.2369 4.02316 64.2369C5.32551 64.2369 6.54459 63.6109 7.29824 62.5542C10.2146 58.4608 16.641 49.6141 21.0988 42.518C22.8346 39.7552 26.8932 39.8507 28.5265 42.6708C31.8293 48.3748 34.1287 53.7393 36.8828 57.2512C38.9879 59.9335 43.0871 59.9398 45.2691 57.3191C49.6992 52.0014 49.6757 48.1308 54.441 41.1706C55.1178 40.1838 56.3113 40.1393 57.0713 41.0645C63.6685 49.0793 66.7984 53.5462 70.5666 53.9239C78.7885 54.7451 79.1493 39.3647 86.7114 17.9896L87.0552 18.1254L89.5168 20.0246C89.5745 20.0692 89.662 20.0416 89.6812 19.9694L89.7901 19.5875C89.8221 19.475 89.8008 19.3562 89.7325 19.2607L87.8302 16.6039C88.7824 14.9997 89.8947 12.8225 90.9174 10.5816L99.135 16.9222C99.3186 17.0644 99.5897 16.9753 99.6516 16.7525L99.9911 15.5493C100.091 15.197 100.023 14.8214 99.8118 14.5243" fill="url(#logo_linear)"/>
<path d="M131.917 22.6754V29.1305H129.263V23.0149C129.263 21.0117 128.33 20.0419 126.716 20.0419C124.976 20.0419 123.765 21.1814 123.765 23.4159V29.1327H121.114V23.017C121.114 21.0138 120.181 20.044 118.567 20.044C116.805 20.044 115.616 21.1836 115.616 23.4181V29.1348H112.962V17.8711H115.488V19.3056C116.338 18.2934 117.653 17.7438 119.203 17.7438C120.858 17.7438 122.237 18.3549 123.022 19.6218C123.934 18.461 125.463 17.7438 127.267 17.7438C130.004 17.7438 131.915 19.2844 131.915 22.6796" fill="white"/>
<path d="M134.951 14.429C134.951 13.542 135.672 12.846 136.648 12.846C137.624 12.846 138.345 13.4996 138.345 14.3654C138.345 15.2927 137.645 16.0099 136.648 16.0099C135.651 16.0099 134.951 15.3139 134.951 14.429ZM135.311 17.8667H137.963V29.1304H135.311V17.8667Z" fill="white"/>
<path d="M144.1 13.481H141.446V29.1309H144.1V13.481Z" fill="white"/>
<path d="M158.739 22.6757V29.1309H156.087V23.0153C156.087 21.0121 155.09 20.0423 153.393 20.0423C151.503 20.0423 150.231 21.1818 150.231 23.4375V29.133H147.577V13.481H150.231V19.1765C151.1 18.2492 152.439 17.742 154.008 17.742C156.723 17.742 158.741 19.2826 158.741 22.6779" fill="white"/>
<path d="M171.6 22.5289V29.1305H169.096V27.7597C168.46 28.7295 167.228 29.2791 165.531 29.2791C162.941 29.2791 161.308 27.8658 161.308 25.9051C161.308 23.9443 162.58 22.5523 166.02 22.5523H168.949V22.3846C168.949 20.844 168.016 19.9379 166.126 19.9379C164.854 19.9379 163.537 20.3602 162.689 21.0563L161.649 19.1358C162.86 18.2085 164.621 17.7438 166.444 17.7438C169.713 17.7438 171.6 19.2844 171.6 22.5311M168.947 25.608V24.3008H166.21C164.405 24.3008 163.919 24.9756 163.919 25.799C163.919 26.7475 164.726 27.3587 166.084 27.3587C167.441 27.3587 168.503 26.7687 168.949 25.608" fill="white"/>
<path d="M173.701 28.0125L174.72 26.0093C175.717 26.6629 177.245 27.1276 178.667 27.1276C180.343 27.1276 181.043 26.6629 181.043 25.8841C181.043 23.7324 174.041 25.7568 174.041 21.2645C174.041 19.134 175.971 17.7419 179.028 17.7419C180.535 17.7419 182.254 18.1006 183.272 18.7117L182.254 20.7149C181.172 20.0825 180.089 19.8703 179.007 19.8703C177.395 19.8703 176.63 20.3987 176.63 21.1351C176.63 23.412 183.633 21.3876 183.633 25.7971C183.633 27.9064 181.682 29.2773 178.498 29.2773C176.609 29.2773 174.722 28.7298 173.703 28.0125" fill="white"/>
<path d="M118.147 47.2441L117.363 46.3571C116.804 46.9215 116.091 47.2335 115.273 47.2335C113.956 47.2335 113.006 46.4292 113.006 45.2812C113.006 44.373 113.433 43.7364 114.447 43.0679C113.939 42.4738 113.753 41.9921 113.753 41.4616C113.753 40.4387 114.464 39.7406 115.559 39.7406C116.565 39.7406 117.222 40.356 117.222 41.347C117.222 42.0982 116.849 42.6414 115.95 43.2356L117.293 44.738C117.445 44.3942 117.56 43.9762 117.639 43.5072L118.538 43.851C118.422 44.4876 118.234 45.052 117.978 45.521L118.762 46.3974L118.149 47.242L118.147 47.2441ZM116.706 45.6165L115.06 43.7703C114.338 44.2393 114.09 44.6255 114.09 45.1475C114.09 45.7523 114.588 46.1703 115.354 46.1703C115.871 46.1703 116.324 45.9815 116.706 45.6165ZM114.767 41.4425C114.767 41.7671 114.883 42.0069 115.327 42.5289C116.048 42.0706 116.279 41.7671 116.279 41.3703C116.279 40.9523 116.02 40.6722 115.557 40.6722C115.06 40.6722 114.765 40.9947 114.765 41.4446" fill="white"/>
<path d="M133.374 35.883V45.4384C133.374 49.5297 131.231 51.3865 127.262 51.3865C125.14 51.3865 123.039 50.839 121.745 49.7843L122.934 47.8024C123.931 48.6257 125.545 49.152 127.115 49.152C129.619 49.152 130.723 48.0125 130.723 45.7355V45.1456C129.79 46.1578 128.451 46.6438 126.925 46.6438C123.677 46.6438 121.194 44.4496 121.194 41.1817C121.194 37.9138 123.677 35.762 126.925 35.762C128.517 35.762 129.918 36.2692 130.851 37.3854V35.8872H133.377L133.374 35.883ZM130.763 41.1774C130.763 39.2782 129.32 37.9923 127.326 37.9923C125.332 37.9923 123.867 39.2782 123.867 41.1774C123.867 43.0766 125.311 44.405 127.326 44.405C129.341 44.405 130.763 43.0979 130.763 41.1774Z" fill="white"/>
<path d="M147.355 42.3619H138.463C138.781 44.0064 140.16 45.0611 142.133 45.0611C143.405 45.0611 144.405 44.66 145.209 43.8388L146.631 45.4621C145.613 46.6653 144.02 47.2977 142.069 47.2977C138.271 47.2977 135.809 44.8722 135.809 41.5194C135.809 38.1666 138.292 35.7603 141.665 35.7603C145.039 35.7603 147.396 38.0584 147.396 41.581C147.396 41.791 147.374 42.1093 147.353 42.3619M138.442 40.6112H144.872C144.661 38.9878 143.408 37.8695 141.668 37.8695C139.927 37.8695 138.696 38.9666 138.442 40.6112Z" fill="white"/>
<path d="M148.649 46.0326L149.667 44.0294C150.664 44.683 152.193 45.1477 153.615 45.1477C155.291 45.1477 155.991 44.683 155.991 43.9042C155.991 41.7525 148.988 43.7769 148.988 39.2846C148.988 37.1541 150.918 35.762 153.976 35.762C155.483 35.762 157.202 36.1206 158.22 36.7318L157.202 38.735C156.119 38.1026 155.037 37.8904 153.954 37.8904C152.342 37.8904 151.578 38.4188 151.578 39.1551C151.578 41.4321 158.581 39.4077 158.581 43.8172C158.581 45.9265 156.627 47.2973 153.446 47.2973C151.557 47.2973 149.669 46.7499 148.651 46.0326" fill="white"/>
<path d="M167.684 46.5378C167.048 47.045 166.091 47.2975 165.137 47.2975C162.654 47.2975 161.232 45.9903 161.232 43.5012V38.0816H159.364V35.9723H161.232V33.3983H163.884V35.9723H166.917V38.0816H163.884V43.4397C163.884 44.5367 164.434 45.1267 165.455 45.1267C166.006 45.1267 166.537 44.9781 166.941 44.6619L167.684 46.5399V46.5378Z" fill="white"/>
<path d="M179.356 40.5492V47.1508H176.852V45.78C176.216 46.7498 174.984 47.2994 173.286 47.2994C170.697 47.2994 169.063 45.8861 169.063 43.9254C169.063 41.9646 170.336 40.5726 173.775 40.5726H176.705V40.4049C176.705 38.8644 175.772 37.9583 173.882 37.9583C172.61 37.9583 171.292 38.3805 170.445 39.0766L169.405 37.1561C170.616 36.2288 172.375 35.7641 174.2 35.7641C177.469 35.7641 179.356 37.3047 179.356 40.5514M172.035 34.2214H170.613C170.656 32.4919 171.546 31.3948 172.904 31.3948C174.262 31.3948 175.027 32.7869 175.791 32.7869C176.384 32.7869 176.788 32.3434 176.831 31.5837H178.252C178.21 33.2283 177.319 34.3466 175.962 34.3466C174.604 34.3466 173.839 32.9545 173.075 32.9545C172.482 32.9545 172.078 33.4192 172.035 34.2192M176.705 43.6283V42.3211H173.968C172.163 42.3211 171.677 42.9959 171.677 43.8193C171.677 44.7678 172.484 45.379 173.842 45.379C175.199 45.379 176.261 44.789 176.707 43.6283" fill="white"/>
<path d="M181.924 41.5191C181.924 38.1451 184.471 35.762 187.951 35.762C191.431 35.762 194 38.1451 194 41.5191C194 44.8931 191.474 47.2973 187.951 47.2973C184.429 47.2973 181.924 44.8931 181.924 41.5191ZM191.325 41.5191C191.325 39.3673 189.881 37.9965 187.951 37.9965C186.021 37.9965 184.599 39.3673 184.599 41.5191C184.599 43.6708 186.043 45.0416 187.951 45.0416C189.86 45.0416 191.325 43.6708 191.325 41.5191Z" fill="white"/>
<defs>
<linearGradient id="logo_linear" x1="0.000835263" y1="32.118" x2="100.04" y2="32.118" gradientUnits="userSpaceOnUse">
<stop stop-color="#E57D26"/>
<stop offset="1" stop-color="#D65628"/>
</linearGradient>
</defs>
</svg>
